<svg width="32" height="32" viewBox="0 0 32 32" fill="none" xmlns="http://www.w3.org/2000/svg">
<g clip-path="url(#clip0_115_845)">
<path d="M19.473 30.2248C26.1658 29.7799 31.4969 24.3731 31.9356 17.5854C32.0215 16.2571 32.0215 14.8815 31.9356 13.5532C31.4969 6.76543 26.1658 1.35865 19.473 0.91376C17.1897 0.76198 14.8057 0.76229 12.5271 0.91376C5.83428 1.35865 0.503129 6.76543 0.06446 13.5532C-0.0213849 14.8815 -0.0213849 16.2571 0.06446 17.5854C0.224228 20.0576 1.31756 22.3466 2.60472 24.2794C3.35208 25.6325 2.85886 27.3213 2.08041 28.7965C1.51913 29.8601 1.23849 30.3919 1.46382 30.7761C1.68915 31.1603 2.19249 31.1726 3.19915 31.1971C5.18993 31.2455 6.53235 30.6812 7.59794 29.8954C8.2023 29.4497 8.50448 29.2269 8.71275 29.2013C8.92102 29.1757 9.33088 29.3445 10.1505 29.682C10.8871 29.9854 11.7424 30.1726 12.5271 30.2248C14.8057 30.3763 17.1897 30.3766 19.473 30.2248Z" fill="url(#paint0_linear_115_845)"/>
<path d="M8.8 20.8L11.747 11.959C11.8981 11.5057 12.3222 11.2 12.8 11.2C13.2777 11.2 13.7019 11.5057 13.853 11.959L16.8 20.8M21.6 11.2V20.8M10.4 17.6H15.2" stroke="white" stroke-width="2" stroke-linecap="round" stroke-linejoin="round"/>
</g>
<defs>
<linearGradient id="paint0_linear_115_845" x1="-4.44903e-05" y1="31" x2="32" y2="0.999999" gradientUnits="userSpaceOnUse">
<stop stop-color="#1C62DD"/>
<stop offset="0.5" stop-color="#007AFF"/>
<stop offset="1" stop-color="#5AC8FA"/>
</linearGradient>
<clipPath id="clip0_115_845">
<rect width="32" height="32" fill="white"/>
</clipPath>
</defs>
</svg>
