<svg width="16" height="18" viewBox="0 0 16 18" fill="none" xmlns="http://www.w3.org/2000/svg">
<g clip-path="url(#clip0_23_24)">
<path d="M2.21925 5.27578L3.03326 4.29603C4.58195 2.43201 5.35629 1.5 6.375 1.5C7.39371 1.5 8.16805 2.43201 9.71674 4.29603L10.5307 5.27578C12.0102 7.05652 12.75 7.9469 12.75 9C12.75 10.0531 12.0103 10.9435 10.5307 12.7242L9.71674 13.704C8.16805 15.568 7.39371 16.5 6.375 16.5C5.35629 16.5 4.58195 15.568 3.03326 13.704L2.21925 12.7242C0.739752 10.9435 0 10.0531 0 9C0 7.9469 0.739751 7.05653 2.21925 5.27578Z" fill="#007AFF"/>
</g>
<defs>
<clipPath id="clip0_23_24">
<rect width="16" height="18" fill="white"/>
</clipPath>
</defs>
</svg>
